# xmcd CD database file
#
# Track frame offsets:
#	150
#	25222
#	49622
#	79735
#
# Disc length: 1390 seconds
#
# Revision: 0
# Processed by: cddbd v1.5.1PL0 Copyright (c) Steve Scherf et al.
# Submitted via: CDex 1.51
#
DISCID=25056c04
DTITLE=wyolica - shelter
DYEAR=2001
DGENRE=Blues
TTITLE0=シェルター
TTITLE1=flower flower
TTITLE2=シェルター (FILTER DUB REMIX)
TTITLE3=シェルター (alternative dub mix)
EXTD=YEAR: 2001
EXTT0=
EXTT1=
EXTT2=
EXTT3=
PLAYORDER=
